<svg xmlns="http://www.w3.org/2000/svg" viewBox="0 0 122.1 143.01"><defs><style>.cls-1{fill:#fff;}</style></defs><title>books</title><g id="Layer_2" data-name="Layer 2"><g id="Layer_1-2" data-name="Layer 1"><path class="cls-1" d="M58.8,143c-6.44-4.63-14.21-4-21.41-5.7-6.77-1.49-13.72-2.65-20.58-3.64-3.39-.5-5-1.82-4.46-5.62,1.73-.5,3.55-1,5.45-1.57,4.55-1.33,6.7-4.14,6.62-8.85-.09-4,.66-8.1-1.16-12.15-2.32-5-4.3-6.78-9.84-6.61H9.87c-.25-4.3-.66-8.52-.75-12.82-.08-2.89,2.07-2.64,4.05-2.23,11.33,2.48,22.74,5,34.06,7.36a69.69,69.69,0,0,1,7.11,1.57,9.27,9.27,0,0,1,3.72,2.4,4.31,4.31,0,0,0,5.79,0,7.23,7.23,0,0,1,3.72-2.4c13.47-3.06,27-6,40.58-8.85,4.22-.9,5-.24,4.72,4.06-.17,3.55-.5,7.19-.75,11-.91,0-1.73.08-2.56,0-8.35-1-11.08,4.55-12,11.74a44.21,44.21,0,0,0,.09,6.61c.08,5.13,2,7.69,6.94,9.18,1.74.49,3.39,1,5.13,1.48.24,4.55.08,4.8-4,5.54-12,2.15-24,4.14-35.88,6.45-2.23.41-4.3,2-6.45,3C61.78,143,60.29,143,58.8,143Zm0-40c-.16.33-.33.5-.33.66-.08,9.92-.16,19.84,0,29.76,0,1,1.66,2,2.57,3,.74-1,2.06-2,2.06-3.06.17-7,.09-14,.17-20.92v-9.5C61.45,103,60.13,103,58.8,103Z"/><path class="cls-1" d="M72.2,0c.57,2.23,1.07,4.55,1.65,6.86l7.52-3a22.91,22.91,0,0,1-1.16,2.23c-1.4,2.06-1.48,3.55.42,5.7,5.7,6.37,7.44,13.81,4.3,22.07a4.85,4.85,0,0,0-.09,2.65c.83,4.38-.33,7.11-4.21,9.75-.66.42-.83,1.41-1.33,2.07-2.72,3.88-5,8.18-8.26,11.49-5.87,6-14.14,6.12-20.17.16-3.39-3.3-5.71-7.77-8.52-11.73a6.93,6.93,0,0,0-1.65-2.15A8.58,8.58,0,0,1,37.06,36a3.51,3.51,0,0,0,.25-2.56C31.44,17.94,44.83,4.22,60.13,3.8h3V.5c1.9,1.32,3.39,2.39,5.21,3.63C69.22,2.65,70.13,1.32,71,0ZM42.44,33.23c.82,7.61,5.2,17.44,9.83,22.4,5.46,6,11.33,6.12,17,.33,4.71-4.79,7.28-10.83,9.26-17.19,1-3.14,1.49-5.79-1.4-8.85-2.48-2.56-3.56-6.53-5.38-10.08a27.82,27.82,0,0,1-15.62,11.9c.91-3.06,1.73-5.78,2.48-8.51C54.09,28.19,49.71,32.9,42.44,33.23Z"/><path class="cls-1" d="M98.32,80.18c-10,2.15-19.18,4.14-28.36,6.2-2.72.67-5.45,1.49-8.18,2.24a3.14,3.14,0,0,1-1.49.08c-11.49-2.65-23-5.37-34.47-8a12.07,12.07,0,0,1-1.32-.41c0-3,.91-5.46,3.39-7.11,5.87-4,12.65-5.46,19.75-7.36-.41,4.46-.74,8.52-1.07,13.06,4.13-1.49,7.94-2.73,11.57-4.3a7,7,0,0,1,6,.09c3.55,1.48,7.27,2.72,11.32,4.21-.41-4.46-.74-8.51-1.07-13.14C81.87,67.87,89.22,69,95,73.9,96.58,75.31,97.16,77.87,98.32,80.18Z"/><path class="cls-1" d="M9.21,122.59c-5.63,0-8.35-2.56-9.1-7.19-.66-4.46,1.66-8.93,5.54-9.75a46.87,46.87,0,0,1,9.09-.83c1.74-.08,4,3.64,3.89,6a66.07,66.07,0,0,1-.25,7,4.29,4.29,0,0,1-2,3C13.75,121.68,10.86,122.18,9.21,122.59Z"/><path class="cls-1" d="M110,104.65c2,.25,4,.42,6,.83,3.55.74,5.7,3.55,6.11,7.85.42,3.81-1.4,7.36-4.63,8.6-4.46,1.65-8.76.08-12.81-1.74-.91-.41-1.07-3.14-1.07-4.79,0-2.4.74-4.71.82-7.11C104.52,104.32,107.25,104.65,110,104.65Z"/></g></g></svg>