<svg xmlns="http://www.w3.org/2000/svg" viewBox="0 0 117.81 124.41"><defs><style>.cls-1{fill:#fff;}</style></defs><title>career</title><g id="Layer_2" data-name="Layer 2"><g id="Layer_1-2" data-name="Layer 1"><path class="cls-1" d="M75.6,43.1c-1.33,5.33-2.67,10.66-4.22,16.22,5.55,1.77,11.11,3.77,16.66,5.33,3.33.89,4.44,2.44,4.22,5.77q-.33,7.67,0,15.33c0,2.89-1.11,3.78-3.77,3.78-8.89-.22-8,.89-7.78-7.78.22-3.77-1.11-5.55-4.89-6.88-8.44-2.67-16.66-6-24.88-8.89-2.66-.89-3.55-2-3.11-4.89,1.33-7.33,2.22-14.88,3.56-22.88-4.23,2-7.78,3.78-11.33,5.56a4.33,4.33,0,0,0-1.34,2.44c-1.33,3.33-2.44,6.66-3.55,10.22-.67,2.22-1.78,2.89-4,2-1.11-.45-2.44-.45-3.33-1.34-.89-.66-1.78-2.22-1.56-3.11,1.78-6,3.78-11.77,6-17.55A5.14,5.14,0,0,1,35,33.77q9-4.67,18-8.67a11.72,11.72,0,0,1,5.55-.44q8.34,1,16.67,2.67a7.82,7.82,0,0,1,4.22,2.22,68.3,68.3,0,0,1,5.77,5.77c4.22,5.11,8.89,8.45,15.78,7.11,2.88-.66,3.33,1.56,3.11,3.78s.66,4.89-3.11,4.89c-4.89,0-9.78.22-14.67-.23-1.33,0-2.88-1.11-4-2-2-2-3.78-4.22-5.78-6.44C76.27,42.65,75.82,42.88,75.6,43.1Z"/><path class="cls-1" d="M45.39,74.42a9.36,9.36,0,0,1-.67,2.22c-2,5.34-4,10.67-5.78,16.22-.66,2.22-1.77,2.67-4,2-10.89-4-22-8-32.88-12-2-.67-2.45-1.78-1.78-3.78,2-5.56,4-10.89,6-16.44.66-2.22,1.77-2.89,4-2,10.88,4,22,8,32.88,12.22C44.05,72.87,44.72,73.76,45.39,74.42Z"/><path class="cls-1" d="M52.72,71.76c4.44,1.55,8.44,3.11,12.88,4.66-2,8-2,16.66-8.44,23.11-2.44,2.44-4.44,5.55-6.66,8.44-1.56,2-2.89,2.44-4.89.89-7.55-6.22-6.89-4.67-1.56-10.89,5.11-5.77,5.56-12.88,7.34-19.77C51.83,76.2,52.27,74.2,52.72,71.76Z"/><path class="cls-1" d="M68.49,21.77A11,11,0,0,1,57.38,10.89a11,11,0,0,1,22-.23A11.1,11.1,0,0,1,68.49,21.77Z"/><path class="cls-1" d="M99.15,95.53h15.77c2.22,0,2.89.89,2.89,3.11,0,2-.22,3.55-2.89,3.33H82.71c-2.44,0-2.67-1.33-2.67-3.33,0-1.78,0-3.33,2.67-3.11Z"/><path class="cls-1" d="M79.38,112.63h-16c-2.22,0-2.89-.88-2.89-2.88s.23-3.56,2.89-3.34H95.15c2.44,0,2.89,1.34,2.89,3.34s-.67,3.11-2.89,3.11C90,112.63,84.71,112.63,79.38,112.63Z"/><path class="cls-1" d="M59.61,124.41H43.83c-2.44,0-3.11-1.11-3.11-3.33,0-2,.67-3.11,2.89-3.11h32c2.22,0,2.89,1.11,2.89,3.11,0,2.22-.67,3.33-3.11,3.11C70.27,124.19,64.94,124.41,59.61,124.41Z"/><path class="cls-1" d="M19.84,61.76a34,34,0,0,0,1.55-4.44c4.89,1.77,9.33,3.33,14.44,5.33-.44,1.55-.88,2.66-1.33,4.44C29.61,65.31,25,63.54,19.84,61.76Z"/></g></g></svg>