<svg xmlns="http://www.w3.org/2000/svg" viewBox="0 0 111.1 121.28"><defs><style>.cls-1{fill:#fff;}</style></defs><title>contact</title><g id="Layer_2" data-name="Layer 2"><g id="Layer_1-2" data-name="Layer 1"><path class="cls-1" d="M10.18,101.35h9.31l.43.44c1.09,9.31,1.09,9.53,10.62,9.53H94.86c4.33,0,6.28-1.95,6.28-6.29V16.68c0-4.55-2-6.5-6.5-6.5H27.07c-5.2,0-6.93,1.73-6.93,6.93V29.24c0,.21-.22.43-.22.86H.22V20.57h10V15.81C10.18,6.5,16.68,0,25.77,0H94.42C105,0,111.1,6.28,111.1,16.89v87.28c0,11-6.07,17.11-17.11,17.11h-66C15.16,121.28,9.1,114.35,10.18,101.35Z"/><path class="cls-1" d="M39.85,90.74H30.32c.22-11.69,5.85-19.92,15.38-26.2-4.55-5.42-6.5-11.48-5-18.19a18.76,18.76,0,0,1,7.37-11.48,20.3,20.3,0,0,1,26.2,1.3c6.72,6.49,9.1,18.4.87,28.37,9.53,6.06,15.16,14.51,15.37,26.2H81C77.1,76.88,70.82,70.6,60.21,70.6,49.81,70.6,43.1,77.1,39.85,90.74Zm31-40.06c0-5.42-4.77-10.4-10.18-10.4a10.42,10.42,0,0,0-10.18,10c-.22,5.42,4.55,10.4,10,10.62C65.62,60.86,70.6,56.09,70.82,50.68Z"/><path class="cls-1" d="M0,90.52V81H10V71h10V90.31C13.43,90.52,6.93,90.52,0,90.52Z"/><path class="cls-1" d="M19.92,40.71v19.5H.22V50.68H10v-10Z"/></g></g></svg>