<svg xmlns="http://www.w3.org/2000/svg" viewBox="0 0 108.64 119.82"><defs><style>.cls-1{fill:#fff;}</style></defs><title>enquiry</title><g id="Layer_2" data-name="Layer 2"><g id="Layer_1-2" data-name="Layer 1"><path class="cls-1" d="M83.64,36V5.53H5.76V114.06c.92,0,1.84.23,2.77.23H65.9a7.47,7.47,0,0,0,4.38-1.85c3.91-3.45,7.6-7.37,11.29-11.06a7.67,7.67,0,0,0,2.07-4.84q.35-19.35,0-38.71c-.23-4.6,1.61-7.6,5.3-10.13,0,1.38.23,2.3.23,3.45V98.62a7.69,7.69,0,0,1-2.07,4.84c-4.38,4.84-9.22,9.44-14.06,13.82a8.5,8.5,0,0,1-5.53,2.31c-20,.23-40.09.23-60.37.23-4.84,0-7.14-2.54-7.14-7.38V7.6C0,2.3,2.3,0,7.37,0h74.2c5.3,0,7.37,2.3,7.6,7.37,0,6-.23,12,0,18C89.63,30,88,33.18,83.64,36Z"/><path class="cls-1" d="M61.75,62.9c5.07-5.07,9.68-9.9,14.52-14.74l26-26c.46-.46.69-1.15,1.15-1.15,1.38-.23,3.22-1.15,4.14-.46,1.85,1.38.93,3-.46,4.38L88.25,43.78l-23.5,23.5c-3.23,3.23-3.92,3.23-6.92-.46s-6.22-7.37-9-11.29c-.69-1.15-1.15-3.69-.46-4.38C50,49.31,51.61,50.69,53,52.3,55.76,55.53,58.53,59,61.75,62.9Z"/><path class="cls-1" d="M11.29,78.57H77.88V83H11.29Z"/><path class="cls-1" d="M37.1,48.39H12.21c-1.84-7.84.23-14.06,6-16.13,1.16-.46,3,0,4.38.23s3,.69,4.15.23c3.92-1.61,7.6-.92,9.45,3S38.48,42.63,37.1,48.39Z"/><path class="cls-1" d="M77.88,95.39v4.15H11.29V95.39Z"/><path class="cls-1" d="M24.89,13.13a8.71,8.71,0,0,1,8.75,8.53,8.65,8.65,0,0,1-8.52,8.52,8.36,8.36,0,0,1-8.53-8.52A8.32,8.32,0,0,1,24.89,13.13Z"/><path class="cls-1" d="M77.88,22.81V27H47.93V22.81Z"/></g></g></svg>