<svg xmlns="http://www.w3.org/2000/svg" viewBox="0 0 185.11 127.38"><defs><style>.cls-1{fill:#fff;}</style></defs><title>features</title><g id="Layer_2" data-name="Layer 2"><g id="Layer_1-2" data-name="Layer 1"><path class="cls-1" d="M185.11,39.56c-1.15,1.15-2.3,2.17-3.45,3.33l-7.3,6.91c-1.66,1.54-3.2,3.07-4.86,4.61-1.8,1.79-3.59,3.58-5.51,5.25a.79.79,0,0,0-.26.89c.77,4.1,1.54,8.2,2.18,12.29.64,3.84,1.41,7.81,2.05,11.65.26,1.54.51,3.07.9,4.87-9.22-4.87-18.18-9.73-27.27-14.6.64-1.15,1.15-2.3,1.79-3.45,0-.13.51-.13.64,0,1.79.89,3.58,1.92,5.38,2.81,4.48,2.43,9,4.74,13.44,7.17.13,0,.25.13.38.13v-.51c-.64-3.33-1.15-6.66-1.79-10.12-.64-3.84-1.28-7.68-2.05-11.52a1.89,1.89,0,0,1,.51-1.66l11.4-11c1.41-1.41,2.81-2.69,4.35-4.1.13-.13.13-.25.38-.38a1.85,1.85,0,0,0-.76-.13c-3.84-.51-7.68-1-11.4-1.54-3.45-.51-6.91-1-10.37-1.4a.8.8,0,0,1-.76-.64l-5.38-11.14c-1.15-2.31-2.31-4.61-3.46-7a17.89,17.89,0,0,1-1-2.31h-.26l-9.6,20c-1-.51-2-1-2.94-1.4s-.77-.26-.39-1.16c2.43-5.12,5-10.24,7.43-15.36,1.79-3.71,3.58-7.42,5.37-11.26,0-.13.13-.26.26-.39.38.77.77,1.54,1,2.18.64,1.28,1.28,2.56,1.8,3.71a23.42,23.42,0,0,0,1.28,2.69c.89,1.66,1.79,3.45,2.56,5.12,2,4.1,4,8.19,6,12.42a1.16,1.16,0,0,0,1,.64c4.09.51,8.06,1.15,12.16,1.66,5.38,1.15,10.88,1.92,16.51,2.82Z"/><path class="cls-1" d="M0,39.43c4.35-.64,8.71-1.15,13.06-1.79,5.37-.77,10.62-1.41,16-2.18A.86.86,0,0,0,29.7,35l4.61-9.6c1.28-2.56,2.43-5,3.71-7.56,1.54-3.07,2.95-6.14,4.48-9.21a1.88,1.88,0,0,0,.39.51c1.28,2.69,2.56,5.25,3.84,7.94l9.21,18.82c.13.38.13.51-.25.76-.9.39-1.79.9-2.69,1.28-.13.13-.38.13-.64.26-3.2-6.66-6.4-13.31-9.73-20.1-.64,1.28-1.15,2.43-1.79,3.59-1.54,3.32-3.2,6.52-4.74,9.85-1.15,2.31-2.3,4.61-3.33,7-.25.39-.51.64-.89.64-5.25.64-10.37,1.41-15.62,2.18-2.18.38-4.23.64-6.27.9-.26,0-.52.12-.77.12a1.68,1.68,0,0,1,.25.39C10.75,44,12,45.32,13.31,46.47c3.72,3.59,7.43,7.3,11.27,10.75a3.07,3.07,0,0,1,1,3.2C24.71,65.29,23.81,70.15,23,75c-.38,2-.76,4-1,6v.64c.77-.39,1.41-.77,1.92-1,4.48-2.43,9-4.74,13.57-7.17,1.28-.64,2.43-1.28,3.71-2,.39-.25.64-.12.77.26.51,1,1,2,1.66,3.2-9.09,4.87-18,9.73-27.26,14.59.25-1.53.51-2.94.76-4.35.64-4,1.41-7.94,2.05-11.9.51-2.82,1-5.76,1.54-8.58.25-1.41.51-2.69.64-4.1a1.85,1.85,0,0,0-.26-.77L11.91,51c-2.31-2.3-4.61-4.48-7-6.78C3.33,42.76,1.66,41.09,0,39.43Z"/><path class="cls-1" d="M51.08,127.38c.13-.77.26-1.28.38-1.92.77-4.61,1.67-9.22,2.44-14,.89-5.12,1.79-10.37,2.81-15.49l1.15-5.76c.52-2.81.9-5.63,1.41-8.32a1.23,1.23,0,0,0-.38-1.28L47.37,69.51c-2.18-2-4.23-4.09-6.4-6.14-4.23-4.1-8.58-8.19-12.81-12.29-.76-.77-1.66-1.54-2.56-2.43a1,1,0,0,1,.52-.13c4-.51,7.93-1,11.9-1.67l16.64-2.3,16.65-2.3a1.24,1.24,0,0,0,1.15-.9c1.79-3.84,3.71-7.68,5.5-11.52,1.28-2.56,2.44-5,3.72-7.55C83.85,17.79,86,13.19,88.2,8.71,89.61,6,90.89,3.2,92.3.51c0-.13.13-.25.26-.51l.38.77,6.15,12.67q4,8.26,8.06,16.52c1.79,3.84,3.71,7.68,5.51,11.52a1.59,1.59,0,0,0,1.28.89l22.53,3.08c5.63.76,11.13,1.53,16.77,2.3l5.76.77c.13,0,.25.13.25,0a25.22,25.22,0,0,1-1.79,2c-1.92,1.92-4,3.84-6,5.76L140.31,67.08c-2.82,2.69-5.64,5.38-8.45,8.19-1.92,1.8-3.71,3.59-5.63,5.38a1.44,1.44,0,0,0-.39,1.41c.9,5,1.79,10.11,2.69,15.11,1.15,6.52,2.43,13.18,3.58,19.71.64,3.33,1.16,6.66,1.8,10v.51c-1.28-.64-2.44-1.28-3.59-1.92-3.84-2-7.55-4.1-11.39-6.15-4.23-2.3-8.58-4.61-12.8-6.91-4-2.05-7.94-4.1-11.78-6.4a2.88,2.88,0,0,0-3.46,0c-5.5,3.07-11,5.89-16.51,8.83-4.87,2.56-9.73,5.25-14.6,7.81-2.68,1.41-5.37,2.82-7.93,4.23C51.59,127.25,51.34,127.25,51.08,127.38ZM92.56,9.6c-.13.26-.26.26-.26.39-1,2.3-2.18,4.48-3.2,6.78-2.82,5.76-5.63,11.52-8.32,17.15-1.92,3.85-3.71,7.81-5.63,11.65a1.32,1.32,0,0,1-.64.52c-1,.12-2.05.25-3,.38-5.89.77-11.78,1.66-17.54,2.43-6.14.9-12.29,1.67-18.43,2.56a5.85,5.85,0,0,1-.64.13l.51.51c.9.77,1.67,1.54,2.56,2.44,2.18,2,4.35,4.09,6.4,6.14,2.95,2.82,5.76,5.63,8.71,8.32L63.62,79.12A1,1,0,0,1,64,80.27c-.51,2.81-1,5.76-1.54,8.57-.64,3.33-1.28,6.79-1.79,10.12q-1.73,9.6-3.46,19.2a4.19,4.19,0,0,0-.12,1.28,3.47,3.47,0,0,0,.64-.38c2.56-1.41,5.12-2.69,7.55-4.1,3.71-2,7.55-4,11.26-6l15.75-8.45a.8.8,0,0,1,1,0c1.92,1,3.84,2.05,5.63,3.08,4.86,2.56,9.73,5.25,14.72,7.81,4.1,2.17,8.32,4.48,12.42,6.65.77.39,1.53.9,2.43,1.28a1.16,1.16,0,0,0-.13-.64c-.51-3.07-1-6.14-1.66-9.21-.9-5-1.79-9.86-2.69-14.85-.77-4.61-1.54-9.22-2.43-13.83a2.44,2.44,0,0,1,.89-2.69c4.36-4.1,8.71-8.32,13.06-12.54,2.05-1.93,4.1-4,6.15-5.89,2.68-2.56,5.37-5.12,7.93-7.68l.9-.9a1.67,1.67,0,0,0-.64-.13c-1.41-.25-2.95-.38-4.35-.64L129,48l-13.82-1.92c-1.28-.13-2.56-.52-3.84-.52-.64,0-.9-.25-1.16-.89-1.15-2.31-2.3-4.74-3.45-7-2.18-4.61-4.36-9.09-6.66-13.7Q97,17.6,94,11.27C93.33,11.14,92.94,10.5,92.56,9.6Z"/><path class="cls-1" d="M115.6,71.43A23,23,0,1,1,92.94,48.26,23.07,23.07,0,0,1,115.6,71.43Zm-23,18.95a18.95,18.95,0,1,0-19-18.95A19,19,0,0,0,92.56,90.38Z"/><path class="cls-1" d="M87.82,76.3c1-1,2.05-2.18,3.2-3.2l10.75-10.76c.39-.38.64-.38,1,0a15.27,15.27,0,0,0,2,2,.54.54,0,0,1,0,.9L88.2,81.93c-.25.26-.38.26-.64,0-2.3-2.43-4.73-4.74-7-7.17-.25-.25-.38-.51,0-.77.77-.76,1.54-1.4,2.18-2.17a.48.48,0,0,1,.77,0l4,4C87.44,76,87.56,76.17,87.82,76.3Z"/></g></g></svg>