<svg xmlns="http://www.w3.org/2000/svg" viewBox="0 0 103.94 103.94"><defs><style>.cls-1{fill:#fff;}</style></defs><title>guidelines</title><g id="Layer_2" data-name="Layer 2"><g id="Layer_1-2" data-name="Layer 1"><path class="cls-1" d="M100.72,3.23H31v97.31H84.59v-14c0-1.61.53-2.15,2.15-2.15h14V79.75c0-1.26.71-2,1.61-2,1.07,0,1.61.71,1.61,2v5.73a2.8,2.8,0,0,1-.71,1.8l-15.6,15.59a3,3,0,0,1-2.15.89H31.18a3.21,3.21,0,0,1-3.58-3.58V3.94C27.6,1.08,28.67,0,31.72,0H100c2.87,0,3.94,1.08,3.94,3.94V66.85a1.42,1.42,0,0,1-1.61,1.25,1.57,1.57,0,0,1-1.61-1.25V3.23ZM98,87.81H87.81V98Z"/><path class="cls-1" d="M10.39,89.43c-3.22-.54-4.83-2.15-4.83-5.38V76.16c0-1.25.53-2,1.61-2s1.61.72,1.61,2v7.89c.18,1.43.72,2,2.15,2h9c1.44,0,2-.54,2-2V29.39H17V48a1.56,1.56,0,0,1-1.61,1.43,1.51,1.51,0,0,1-1.61-1.61V29.21H9v40.5a1.7,1.7,0,0,1-1.61,1.44,1.58,1.58,0,0,1-1.62-1.26V16.49H3.23V39.61A1.73,1.73,0,0,1,1.61,41,1.57,1.57,0,0,1,0,39.61v-24c0-1.79.54-2.33,2.33-2.33H5.2c.71,0,1.07-.18,1.25-.89,1.61-3.95,5-5.74,9.86-5.56a8.28,8.28,0,0,1,8.24,5.73A10.46,10.46,0,0,1,25.09,16v68.1q0,4.85-4.84,5.38v4.83c0,1.62,0,1.8-1.61,2.33-.18,0-.36.36-.36.72l-1.08,4.84c-.18,1.25-.71,1.79-1.79,1.79s-1.61-.54-1.79-1.79l-1.08-4.84c0-.36-.35-.54-.71-.72a1.74,1.74,0,0,1-1.44-1.79V89.61C10.57,89.61,10.57,89.43,10.39,89.43ZM9,26h12.9c0-.18.18-.18.18-.36V15.41a5.27,5.27,0,0,0-2.33-4.3A6.65,6.65,0,0,0,14,10a5.53,5.53,0,0,0-5,5C8.78,18.64,9,22.22,9,26ZM17,93.37V89.43H14v3.94Z"/><path class="cls-1" d="M65.77,17.92H47a5.71,5.71,0,0,1-5.55-4.48,5.64,5.64,0,0,1,3-6.27,5.53,5.53,0,0,1,2.33-.54h5.92a1.66,1.66,0,0,1,1.79,1.61c0,1.08-.72,1.62-1.79,1.62H47.13a2.66,2.66,0,0,0-2.87,2.51c0,1.43,1.08,2.5,2.87,2.5H83.69c1.61,0,2.87-.89,2.87-2.5a2.5,2.5,0,0,0-2.69-2.51H59.14a1.57,1.57,0,0,1-1.43-1.62A1.57,1.57,0,0,1,59,6.63H84.05A5.31,5.31,0,0,1,89.25,10c1.43,2.15.89,4.3-.72,6.09a5.58,5.58,0,0,1-4.3,1.79Z"/><path class="cls-1" d="M47.85,29.39V33c0,1.44-.54,2-2,2H38.35c-1.25,0-1.79-.54-1.79-1.8V25.63c0-1.26.54-1.8,1.79-2h7.71c1.25,0,1.79.53,1.79,1.79ZM40,26.88v4.66h4.66V26.88Z"/><path class="cls-1" d="M69.89,27.6H85a1.43,1.43,0,0,1,1.25,1.61,1.57,1.57,0,0,1-1.43,1.61H54.84a1.62,1.62,0,0,1,0-3.22h15Z"/><path class="cls-1" d="M69.89,43.91H84.41a1.62,1.62,0,1,1,0,3.22H55a1.57,1.57,0,0,1-1.44-1.61c0-.9.54-1.43,1.62-1.61H69.89Z"/><path class="cls-1" d="M36.56,61.65V57.88c0-1.25.54-1.79,1.79-1.79h7.71c1.25,0,1.79.54,1.79,2v7.53c0,1.26-.54,1.79-1.79,1.79H38.35c-1.25,0-1.79-.53-1.79-1.79Zm8.06-2.33H40V64h4.66Z"/><path class="cls-1" d="M69.71,63.26H54.84a1.43,1.43,0,0,1-1.26-1.61A1.56,1.56,0,0,1,54.84,60H84.41a1.62,1.62,0,1,1,0,3.22H69.71Z"/><path class="cls-1" d="M47.85,78v3.76c0,1.25-.54,1.79-1.79,1.79H38.17a1.61,1.61,0,0,1-1.79-1.79V73.83A1.61,1.61,0,0,1,38.17,72h7.89c1.25,0,1.79.54,1.79,1.79Zm-8.07,2.33h4.66V75.63H39.78Z"/><path class="cls-1" d="M69.89,76.34H84.41a1.62,1.62,0,1,1,0,3.23H55a1.63,1.63,0,0,1,0-3.23H69.89Z"/><path class="cls-1" d="M42.11,51.07H38.35c-1.25,0-1.79-.53-1.79-2V41.58a1.72,1.72,0,0,1,2-2h7.53a1.72,1.72,0,0,1,2,2V49.1c0,1.44-.54,2-2,2Zm-2.33-3.22h4.66V43.19H39.78Z"/><path class="cls-1" d="M17,69.18V76.7c0,1.26-.53,2-1.61,2S13.8,78,13.8,76.52V61.29c0-1.25.54-2,1.61-2S17,60,17,61.47Z"/><path class="cls-1" d="M17,54.3a1.61,1.61,0,1,1-1.61-1.61A1.6,1.6,0,0,1,17,54.3Z"/><path class="cls-1" d="M103.94,73.12a1.61,1.61,0,1,1-1.61-1.62A1.6,1.6,0,0,1,103.94,73.12Z"/></g></g></svg>