<svg xmlns="http://www.w3.org/2000/svg" viewBox="0 0 200 160.7"><defs><style>.cls-1{fill:#fff;}</style></defs><title>infra_1</title><g id="Layer_2" data-name="Layer 2"><g id="Layer_1-2" data-name="Layer 1"><path class="cls-1" d="M139.2,62.8h45.4v88.1H200v9.8H125.7V126a25.71,25.71,0,0,0-22-25.8C90,98,76.4,108.1,74.6,121.8a31.08,31.08,0,0,0-.3,4.3v34.6H0v-9.8H15.4V62.7H60.7V42.3H96.5V0h6.9c0,.8.1,1.6.1,2.5h25.6c-.2.5-.3.8-.4,1.1-1.4,2.6-2.8,5.1-4.2,7.7a2.21,2.21,0,0,0,0,1.6c1.3,2.6,2.7,5.1,4,7.6.2.4.4.8.6,1.3H103.5V42.2h35.6C139.2,49.2,139.2,55.9,139.2,62.8ZM100,85.1A16,16,0,1,0,84,69.2,15.94,15.94,0,0,0,100,85.1Zm69.2,39.8H148.3v20.8h20.9Zm-113.8,0H34.5v20.8H55.4ZM34.5,112H55.3V91.2H34.5Zm113.8-.1h20.9V91.1H148.3Z"/><path class="cls-1" d="M101.4,68.2h4.9c1.5,0,2.3.6,2.3,1.7s-.8,1.7-2.3,1.7h-6.1c-1.6,0-2.2-.6-2.3-2.2V58.3c0-1.4.6-2.2,1.7-2.2s1.7.8,1.7,2.2v8.2A9.15,9.15,0,0,1,101.4,68.2Z"/></g></g></svg>