<svg xmlns="http://www.w3.org/2000/svg" viewBox="0 0 142.61 128.84"><defs><style>.cls-1{fill:#fff;}</style></defs><title>policy</title><g id="Layer_2" data-name="Layer 2"><g id="Layer_1-2" data-name="Layer 1"><path class="cls-1" d="M0,97.12a12.17,12.17,0,0,1,3.93-1.23c5.17-.24,10.58,0,16.23,0V92.45c.25-26.06.49-51.63.74-77.45,0-8.85,6.15-15,15.24-15h88C135,0,138.92,2.7,142.61,12.79V36.88a15,15,0,0,1-4.43,1.23c-6.88.25-14,0-21.39,0v70.57c0,10.57-6.15,17.95-16.47,19.91a18.33,18.33,0,0,1-3.69.25h-75c-11.31,0-18.2-5.16-21.15-16,0-.25-.24-.25-.49-.49Zm24.83-1.47H78.19c3.93,0,4.18.24,4.18,4.18v9.83a15,15,0,0,0,19.18,13.77c6.39-1.72,10.57-7.87,10.57-15.24V22.87c0-6.4-.74-13,4.67-18.69H37.13C29,4.18,25.33,7.87,25.33,16c-.25,17.21-.25,34.18-.5,51.39Zm59.26,28.52c.25-.25.25-.49.49-.74-7.37-6.39-6.64-14.75-6.39-23.11H4.67v7.13c0,10.33,6.15,16.47,16.48,16.47H80.89A12.83,12.83,0,0,0,84.09,124.17Zm54.09-90.73V14.51a10.84,10.84,0,0,0-10.32-9.84,10,10,0,0,0-10.58,8.85c-.49,6.64-.24,13.28-.24,19.92Z"/><path class="cls-1" d="M87.53,36.39v6.39A16.37,16.37,0,0,1,80.16,57C76.71,59.5,73,62.21,69.34,64.42a4.21,4.21,0,0,1-4.18,0c-3.69-2.21-7.13-4.67-10.82-7.13A17.47,17.47,0,0,1,46.72,43a145.14,145.14,0,0,1,0-14.75,5.76,5.76,0,0,1,2.46-3.94c5.16-2.7,10.32-5.41,15.49-7.62a6.83,6.83,0,0,1,4.42,0c5.41,2.46,10.57,4.92,15.74,7.87A5.61,5.61,0,0,1,87,28.28C87.78,30.73,87.53,33.44,87.53,36.39ZM67.37,60.24c3.44-2.46,6.88-4.67,10.08-6.88a12.68,12.68,0,0,0,5.66-10.82V30.24a3.2,3.2,0,0,0-2.22-3.44l-11.8-5.9a4.21,4.21,0,0,0-3.44,0c-4.18,2-8.11,3.93-12.05,6.15a4.82,4.82,0,0,0-2,3.19,105.15,105.15,0,0,0,0,12.3A12.27,12.27,0,0,0,56.8,52.86C60.24,55.57,63.68,57.78,67.37,60.24Z"/><path class="cls-1" d="M68.6,71.8H94.66c1.72,0,3.69,0,3.69,2.21,0,2.46-2,2.21-3.69,2.21H41.8L38.85,74c1-.74,2-2.21,2.95-2.21C50.65,71.55,59.5,71.8,68.6,71.8Z"/><path class="cls-1" d="M68.35,82.37H94.66c1.72,0,3.45-.25,3.45,2,0,2.45-1.73,2.45-3.69,2.45H42.05c-1.73,0-3.69,0-3.45-2.45,0-2.22,2-2,3.45-2Z"/><path class="cls-1" d="M65.16,42.29c2.7-2.7,4.67-5.16,7.13-7.38A4,4,0,0,1,76,34.42c1.72,1,.49,2.46-.5,3.69L67.62,46c-1.48,1.72-3,1.72-4.68,0a28.55,28.55,0,0,1-3.68-3.93c-.5-.74-.25-2.22-.25-3.2,1.23,0,2.46-.25,3.2.24C63.19,39.59,63.93,40.82,65.16,42.29Z"/></g></g></svg>