<!-- Generator: Adobe Illustrator 24.0.2, SVG Export Plug-In  -->
<svg version="1.1" xmlns="http://www.w3.org/2000/svg" xmlns:xlink="http://www.w3.org/1999/xlink" x="0px" y="0px" width="37.24px"
	 height="28.96px" viewBox="0 0 37.24 28.96" style="enable-background:new 0 0 37.24 28.96;" xml:space="preserve">
<style type="text/css">
	.st0{fill:#3FA9F5;}
</style>
<defs>
</defs>
<g>
	<path class="st0" d="M0,16.38c0-4.86,1.28-8.8,3.84-11.83C6.41,1.51,10.19,0,15.18,0v7.09c-3.53,0-5.29,2.36-5.29,7.09v1.3h6.69
		v13.48H2.3C0.76,24.76,0,20.57,0,16.38z M20.67,16.38c0-4.86,1.28-8.8,3.84-11.83C27.08,1.51,30.85,0,35.85,0v7.09
		c-3.59,0-5.39,2.36-5.39,7.09v1.3h6.79v13.48H22.97C21.43,24.96,20.67,20.77,20.67,16.38z"/>
</g>
</svg>
