<svg xmlns="http://www.w3.org/2000/svg" viewBox="0 0 103.66 123.16"><defs><style>.cls-1{fill:#fff;}</style></defs><title>rules</title><g id="Layer_2" data-name="Layer 2"><g id="Layer_1-2" data-name="Layer 1"><path class="cls-1" d="M42.9,123.11H3.51c-1.23,0-2.67.41-3.29-1-.82-1.64.82-2.46,1.65-3.28C4.94,115.72,6,112,6,107.72c0-30.78.2-61.56-.21-92.33C5.76,6,12.33,0,21,0,43.52.41,66.29.21,88.86.21c7.8,0,13.13,3.89,14.57,11.07,1.23,6.16-2.46,12.11-9.24,14.78-2,.82-2,2.25-2,3.9v81.86c0,2.67-.2,5.34-2,7.39a9.56,9.56,0,0,1-8,3.9ZM9.66,60.73h0V106.9c0,3.49-.2,6.77-2,9.85-1.44,2.25-.41,2.66,1.85,2.66h72c5.34,0,7.18-1.84,7.18-7.18V30.37c0-2.88-.82-3.7-3.69-3.7-20.72.21-41.65,0-62.37,0a19.19,19.19,0,0,1-3.28-.2A1.75,1.75,0,0,1,17.66,25c-.2-1,.41-1.64,1.44-1.85.82-.2,1.44-.2,2.26-.41a8.86,8.86,0,0,0,7-6.36c1-3.48.62-7-2-9.64A9.9,9.9,0,0,0,15.82,4.31a9,9,0,0,0-6.16,8.82C9.46,28.93,9.66,44.93,9.66,60.73ZM28.74,22.57a7.16,7.16,0,0,0,3.49.41H89.89c3.69,0,6.77-1.44,8.61-4.72,3.7-6.77-.82-14.36-8.82-14.36H30.8c-1.44,0-2.06.41-1,1.84C33.67,11.49,33.05,17,28.74,22.57Z"/><path class="cls-1" d="M42.28,38.78H19.1c-1-.21-1.64-.62-1.64-1.85a1.74,1.74,0,0,1,1.43-1.64,14,14,0,0,1,2.88-.2H63c1.64,0,4.1-.62,4.1,1.84,0,2.87-2.67,1.85-4.31,1.85C56,39,49.06,38.78,42.28,38.78Z"/><path class="cls-1" d="M64.24,79.2H51.52a14.09,14.09,0,0,1-2.87-.41,1.56,1.56,0,0,1-1.24-1.64c0-.82.41-1.23,1.24-1.44a16.17,16.17,0,0,1,3.07-.41H78.4c1.23.21,3.07.21,2.87,2,0,1.64-1.64,1.85-2.87,1.85Z"/><path class="cls-1" d="M64.44,56.22H50.49c-1.43,0-3.08,0-3.08-1.85s1.65-1.84,2.88-1.84H78c1.43,0,3.07,0,3.07,1.84,0,2.05-1.84,1.85-3.28,1.85Z"/><path class="cls-1" d="M64.24,102.18H50.29c-1.44,0-3.08,0-3.08-1.85s1.64-1.85,3.08-1.85H78c1.43,0,3.07,0,3.07,1.85,0,2-1.84,1.85-3.28,1.85Z"/><path class="cls-1" d="M24,103.41c-1.43.2-2.05,1.44-2.87,2.26-1,.82-2,2-3.28.82-1.44-1.23-.41-2.67.61-3.49,2.88-2,2.47-3.9-.2-6-1-.82-1.85-2-.41-3.28,1-1,2.26-.41,3.08.61,2.05,2.67,3.89,2.87,6.15,0,.82-1,2-1.64,3.28-.41,1,1,.21,2.26-.61,3.08-2.67,2-2.87,3.9,0,6.15,1,.82,1.85,2.06.61,3.29s-2.25.2-3.28-.62S25.46,103.82,24,103.41Z"/><path class="cls-1" d="M24.23,60.94a6.53,6.53,0,0,1-6.77-6.57,6.83,6.83,0,0,1,6.77-6.77A6.94,6.94,0,0,1,31,54.17,6.82,6.82,0,0,1,24.23,60.94Zm-3.08-6.57A2.59,2.59,0,0,0,24,57.24a3.08,3.08,0,1,0,0-6.15A3,3,0,0,0,21.15,54.37Z"/><path class="cls-1" d="M21.56,85.15c-1.84-.21-2.25-2.26-3.28-3.49-.62-1-1.44-2-.62-3.08,1-1.43,2.26-1,3.08.21,1,1.43,1.64,1,2.46,0,2.06-2.67,4.11-5.34,6.36-8,.82-1,1.85-2.06,3.08-.82,1.23,1,.62,2-.2,3.07-2.88,3.7-5.75,7.39-8.83,11.08A2.81,2.81,0,0,1,21.56,85.15Z"/></g></g></svg>