<svg xmlns="http://www.w3.org/2000/svg" viewBox="0 0 140.08 131.04"><defs><style>.cls-1{fill:#fff;}</style></defs><title>student-corner</title><g id="Layer_2" data-name="Layer 2"><g id="Layer_1-2" data-name="Layer 1"><path class="cls-1" d="M140.08,82.26h-8.92v46.05c0,1.94-.39,2.85-2.59,2.72-9.06-.13-18,0-27,0L40,130.64c-9.32,0-18.63.26-27.94.26h-3V82.13H0v-12H140C140.08,74.11,140.08,78,140.08,82.26Z"/><path class="cls-1" d="M40.36,63.9c0-3.88-.39-7.51.12-11.13.91-7.89,7.25-14.74,17.85-13.19,2.59.39,5.18,2.2,7.38,3.75,3,2.07,5.56,2.46,8.53,0,1-.9,2.46-1.16,3.5-1.94C86.27,35.7,98.3,42.17,99.47,52c.51,3.88.13,7.89.13,12C80.06,63.9,60.27,63.9,40.36,63.9Z"/><path class="cls-1" d="M70,31.56A15.75,15.75,0,0,1,54.2,15.78a15.78,15.78,0,0,1,31.56-.13A15.55,15.55,0,0,1,70,31.56Z"/></g></g></svg>